<svg width="175" height="141" viewBox="0 0 175 141" fill="none" xmlns="http://www.w3.org/2000/svg">
<path d="M76.3936 140.5C71.1936 139.8 65.8936 139.3 60.6936 138.4C59.5936 138.2 58.6936 137 57.6936 136.3C58.6936 135.3 59.4936 134 60.5936 133.4C61.4936 132.9 62.8936 133 63.9936 133C70.8936 132.9 77.8936 132.9 84.7936 132.9C92.3936 132.9 97.6936 129.4 100.894 122.5C101.294 121.6 101.494 120.4 102.294 119.9C103.494 119 104.894 118.5 106.294 117.9C106.594 119.3 107.594 120.9 107.194 122.1C103.694 134.5 96.6936 139.3 80.8936 140.1C79.3936 140.2 77.8936 140.1 76.3936 140.1C76.3936 140.2 76.3936 140.4 76.3936 140.5Z" fill="black"/>
<path d="M22.2936 32.7C16.6936 30.8 13.1936 33.9 9.99359 38.2C9.09359 39.4 7.0936 39.8 5.5936 40.6C5.4936 38.8 4.6936 36.6 5.3936 35.2C10.5936 24.6 23.7936 24.7 29.9936 29.8C33.2936 32.5 32.6936 41.4 29.0936 43.4C25.7936 45.1 23.3936 43.5 22.4936 40.4C21.7936 38.1 22.2936 35.6 22.2936 32.7Z" fill="black"/>
<path d="M157.794 34C150.994 31.5 146.794 32.7 142.694 37.7C141.994 38.6 140.494 38.9 139.294 39.5C138.894 37.9 137.694 35.9 138.294 34.8C141.194 29.1 146.794 27.5 152.494 27.2C157.294 26.9 161.994 28.5 163.594 33.8C164.494 36.6 164.594 39.9 164.094 42.7C163.494 45.5 160.994 47.2 157.894 45.9C154.594 44.5 153.894 41.6 154.994 38.4C155.394 36.9 156.694 35.7 157.794 34Z" fill="black"/>
<path d="M17.0936 1.2C23.7936 0.799997 28.8936 4.1 33.3936 8.5C34.3936 9.5 34.0936 11.9 34.4936 13.7C32.9936 13.2 31.0936 13.1 29.9936 12.1C22.4936 4.9 14.0936 4.3 5.7936 10.6C3.9936 12 1.9936 14.3 0.0936043 11.5C-0.406396 10.7 1.1936 7.4 2.5936 6.6C7.0936 4.1 11.8936 2.2 16.5936 0C16.7936 0.4 16.9936 0.799997 17.0936 1.2Z" fill="black"/>
<path d="M80.2936 66.9C80.5936 62.4 80.7936 58 81.3936 53.5C81.4936 52.4 82.9936 51.4 83.7936 50.3C84.7936 51.5 86.4936 52.6 86.4936 53.8C86.8936 59.9 86.7936 66.1 86.8936 72.2C86.8936 73.7 87.1936 75.1 87.2936 76.6C87.3936 78 88.1936 79.9 87.5936 80.7C86.9936 81.6 84.5936 82.2 83.6936 81.7C82.2936 81 80.8936 79.2 80.6936 77.7C80.2936 74.1 80.5936 70.4 80.5936 66.8C80.4936 66.9 80.3936 66.9 80.2936 66.9Z" fill="black"/>
<path d="M160.294 0.800018C165.194 4.20002 169.694 7.20002 174.094 10.5C174.594 10.9 174.594 13 173.994 13.6C173.494 14.2 171.694 14.3 170.894 13.9C169.094 13 167.594 11.7 165.994 10.5C160.394 6.40002 152.594 7.00002 147.194 11.5C146.094 12.4 143.894 12.2 142.294 12.4C142.694 10.7 142.694 7.90002 143.694 7.50002C148.894 5.10002 154.294 3.20002 160.294 0.800018Z" fill="black"/>
</svg>
