<svg width="256" height="268" viewBox="0 0 256 268" fill="none" xmlns="http://www.w3.org/2000/svg">
<path d="M254.3 40.9C254.7 51.3 255.6 64.1 255.7 76.8C255.8 87.8 254.9 98.7 254.6 109.7C254.5 114.2 255.2 118.6 255.2 123.1C255.3 130.7 255.1 138.3 255.1 145.9C255.1 151.2 255.2 156.5 255.2 161.7C255.2 179.5 255.6 197.3 255.1 215.1C254.7 228.9 253.2 242.6 252.1 256.3C251.5 264.3 248.8 266.7 239.2 267.4C235.8 267.6 232.3 266.9 228.8 266.4C226.8 266.1 224.9 265.2 223 265.1C211.1 264.6 199.2 263.9 187.3 264C177.2 264.1 167 265.7 156.9 265.6C139.6 265.4 122.3 263.9 105.1 263.8C88.7 263.7 72.2 265.1 55.7 265.3C45.3 265.4 34.8 264.7 24.4 264.4C19.3 264.2 14.1 263.9 8.99998 263.6C3.59998 263.3 1.99998 261.2 2.39998 255.9C3.99998 234 4.69998 212.1 1.19998 190.4C-1.30002 175.3 0.599978 160.3 1.29998 145.2C1.79998 135 1.39998 124.7 0.799978 114.5C-2.24113e-05 100.9 -0.800022 87.4 1.79998 73.9C3.29998 65.8 3.29998 57.3 3.29998 49.1C3.29998 36.2 2.79998 23.3 2.39998 10.4C2.29998 6.10002 3.79998 3.90002 7.99998 3.60002C16.6 3.00002 25.3 1.80002 33.9 1.90002C51.8 2.00002 69.8 2.90002 87.7 3.30002C93.3 3.40002 99 3.50002 104.6 3.10002C131.8 1.10002 159 0.40002 186.3 2.40002C200.7 3.50002 215.3 0.90002 229.8 0.10002C234.4 -0.09998 239.1 -0.09998 243.7 0.20002C249.4 0.60002 251.7 4.40002 252 9.60002C252.8 19.3 253.5 28.9 254.3 40.9ZM247.3 62.3H247.4C247.4 60.6 247.5 59 247.4 57.3C246.4 43.2 245.2 29.2 244.3 15.1C243.9 7.90002 241.7 5.90002 234.7 6.90002C233.2 7.10002 231.8 7.70002 230.3 7.90002C224.1 8.50002 217.8 9.10002 211.6 9.60002C208 9.80002 204.4 9.60002 200.8 9.80002C195.3 10.1 189.9 10.8 184.4 10.7C175.8 10.6 167.1 9.50002 158.5 9.70002C139.5 10.1 120.6 11.6 101.7 11.7C83.1 11.7 64.5 10.2 45.8 10C35 9.80002 24.4 11 13.8 11.4C10.7 11.5 10.8 13 10.8 15.6C10.9 32.2 11.1 48.8 10.4 65.4C9.79998 79.3 6.69998 93.1 8.49998 107.1C9.09998 111.7 9.89998 116.3 10.1 120.9C10.4 129 10.7 137 10.4 145.1C9.99998 155.3 8.39998 165.5 8.29998 175.7C8.19998 183.3 10.1 190.9 10.3 198.5C10.8 214.6 11 230.7 11.2 246.8C11.3 254.7 11.2 254.7 19.3 255.2C20 255.2 20.6 255.5 21.3 255.5C32.9 255.9 44.7 257.4 56.2 256.4C78.7 254.5 101.1 255 123.5 256.1C138.8 256.8 154.1 256.8 169.4 256.9C186.8 257 204.2 256.9 221.6 256.9C223.1 256.9 224.5 257.4 226 257.7C229.4 258.4 232.8 259.5 236.2 259.7C242.8 260.2 244 258.6 244.3 252.1C245 240.7 246.2 229.3 246.7 217.8C247.3 203 247.6 188.3 247.7 173.5C247.8 163.4 247.5 153.3 247.5 143.2C247.5 137.7 248.2 132.3 248.2 126.8C248.1 120 247.5 113.3 247.4 106.6C247.2 91.9 247.3 77.1 247.3 62.3Z" fill="black"/>
<path d="M127.5 213.5C120.2 212.1 115.4 215.3 110.4 218.3C108.4 219.5 104.4 220.2 102.9 219.1C101 217.6 100.4 214.1 100 211.4C99.8 210.3 101.4 208.4 102.7 207.8C112.7 203.2 123.3 201.8 134.1 203.7C136 204 137.6 206 139.4 207.3C138 208.9 136.9 211.3 135.2 212C132.5 213.1 129.4 213.2 127.5 213.5Z" fill="black"/>
<path d="M173.9 89.4C173.4 89 172 87.9 170.5 86.7C172 85.5 173.5 83.5 175.1 83.4C185.3 82.4 195.6 81.6 205.8 81.1C207.3 81 208.8 82.8 210.3 83.7C208.9 84.8 207.7 86.9 206.2 87C196 88.1 185.7 88.7 173.9 89.4Z" fill="black"/>
<path d="M84 89.5C77.1 90.2 70.2 91.2 63.3 91.5C61.5 91.6 58 90.1 57.9 89C57.4 85.5 60.6 85.7 63.1 85.4C70.2 84.7 77.2 83.8 84.3 83.1C86.4 82.9 88.7 82.6 90.7 83.1C92.1 83.5 93.1 85.3 94.3 86.5C93 87.6 91.9 89.2 90.5 89.6C88.5 90.1 86.2 89.7 84.1 89.7C84 89.7 84 89.6 84 89.5Z" fill="black"/>
<path d="M190.7 110.9C192.4 108 193.7 105.7 195.2 103.6C196.2 102.3 197.5 100.6 198.9 100.4C199.9 100.2 201.9 101.8 202.5 103.1C204.5 107.4 200.2 114 194 116.5C188.9 118.6 184 116.8 182.4 111.6C181.8 109.7 182.1 106.1 183.4 105.2C186.2 103.2 187.7 105.9 188.6 108.4C188.9 108.8 189.3 109.1 190.7 110.9Z" fill="black"/>
<path d="M124.1 132.9C125.5 134.8 126.9 135.9 127.2 137.2C127.9 140.4 128 143.8 128.5 147.1C128.9 149.7 128.7 152.7 130.1 154.7C132.5 158.2 130.1 159.3 128 160.4C125.4 161.8 122.5 161 122.2 158C121.4 151.1 121.1 144.2 121 137.2C120.9 136.1 122.7 134.8 124.1 132.9Z" fill="black"/>
<path d="M88.5 106.8C88.4 112.6 82.9 118.1 78 118.6C73.4 119 68.1 114.8 67.5 109.9C67.4 108.6 68.6 107.1 69.1 105.7C70.4 106.4 72.2 106.7 73.1 107.7C77.1 112.7 78.1 112.5 81.2 106.9C82 105.4 84.2 104.1 85.9 103.9C86.8 103.8 88 106.2 88.5 106.8Z" fill="black"/>
</svg>
