<svg width="137" height="146" viewBox="0 0 137 146" fill="none" xmlns="http://www.w3.org/2000/svg">
<path d="M9.40233 0C17.7023 1.3 23.7023 4.8 28.3023 10.7C33.1023 16.8 37.9023 23 42.4023 29.3C43.4023 30.7 43.4023 32.9 43.9023 34.8C41.6023 34.2 38.6023 34.3 37.3023 32.8C32.9023 28.1 29.3023 22.7 25.1023 17.9C22.5023 14.8 19.7023 11.6 16.3023 9.5C13.2023 7.6 9.20232 5.3 6.20232 10.7C5.70232 11.5 2.10233 11.4 0.602326 10.5C-0.0976743 10.1 -0.297674 6.2 0.602326 5.4C3.20233 3.2 6.40233 1.8 9.40233 0Z" fill="black"/>
<path d="M136.602 14.7C133.502 13.8 130.502 11.9 128.602 12.6C123.902 14.4 119.202 16.8 115.502 20.1C110.702 24.3 107.102 29.9 102.502 34.4C101.302 35.6 98.6023 35.3 96.6023 35.3C96.3023 35.3 95.5023 32.8 95.8023 32.5C105.102 24.3 109.902 11.1 123.102 7.30001C125.802 6.50001 129.102 6.40001 131.802 7.10001C135.302 8.10001 137.402 10.7 136.602 14.7Z" fill="black"/>
<path d="M76.9023 142.3C76.6023 142.8 76.0023 144.8 75.1023 145C73.8023 145.2 71.8023 144.5 70.9023 143.4C69.8023 142.1 69.3023 140.1 69.1023 138.4C68.5023 134 65.7023 131.9 61.7023 131.8C57.9023 131.7 54.0023 132.5 52.4023 136.9C51.3023 139.8 49.7023 142.4 46.3023 140.6C43.0023 138.8 44.2023 135.8 45.6023 133.2C49.0023 126.9 58.7023 123.4 66.5023 125.4C72.7023 127 76.6023 133 76.9023 142.3Z" fill="black"/>
<path d="M9.90231 50.6C10.1023 48.9 10.2023 47 10.6023 45.2C11.7023 39.2 12.8023 38.4 19.5023 39.2C24.2023 39.7 25.3023 43.5 25.0023 47.2C24.7023 50.6 23.6023 54.1 21.8023 57C20.5023 59 17.3023 61.2 15.4023 60.9C13.4023 60.5 11.7023 57.4 10.3023 55.1C9.70231 54 10.0023 52.2 9.90231 50.6Z" fill="black"/>
<path d="M126.702 51.9C125.302 55.7 124.102 59.8 122.202 63.3C121.402 64.8 118.602 66.2 117.002 66C115.402 65.8 112.802 63.5 112.802 62C112.602 56.8 112.702 51.4 113.702 46.3C114.502 42.3 118.302 44.1 120.802 44.5C124.802 45.1 126.502 47.7 126.702 51.9Z" fill="black"/>
<path d="M61.9023 93.2C62.6023 87.8 63.1023 82.8 64.1023 78C64.4023 76.6 66.3023 75.6 67.4023 74.4C68.4023 75.9 70.1023 77.3 70.2023 78.8C70.4023 81.7 69.5023 84.7 69.4023 87.6C69.2023 90.7 69.7023 93.8 69.4023 96.8C69.3023 98.3 68.1023 99.8 67.4023 101.3C65.9023 100.3 64.0023 99.7 63.2023 98.4C62.1023 96.8 62.2023 94.7 61.9023 93.2Z" fill="black"/>
</svg>
