<svg width="153" height="139" viewBox="0 0 153 139" fill="none" xmlns="http://www.w3.org/2000/svg">
<path d="M69.6521 132.404C62.3521 131.004 57.5521 134.204 52.5521 137.204C50.5521 138.404 46.5521 139.104 45.0521 138.004C43.1521 136.504 42.5521 133.004 42.1521 130.304C41.9521 129.204 43.5521 127.304 44.8521 126.704C54.8521 122.104 65.4521 120.704 76.2521 122.604C78.1521 122.904 79.7521 124.904 81.5521 126.204C80.1521 127.804 79.0521 130.204 77.3521 130.904C74.6521 132.004 71.5521 132.104 69.6521 132.404Z" fill="black"/>
<path d="M116.052 8.304C115.552 7.904 114.152 6.804 112.652 5.604C114.152 4.404 115.652 2.404 117.252 2.304C127.452 1.304 137.752 0.504 147.952 0.00399994C149.452 -0.0960001 150.952 1.704 152.452 2.604C151.052 3.704 149.852 5.804 148.352 5.904C138.152 7.004 127.852 7.604 116.052 8.304Z" fill="black"/>
<path d="M26.1521 8.40398C19.2521 9.10398 12.3521 10.104 5.45212 10.404C3.65212 10.504 0.152122 9.00398 0.052122 7.90398C-0.447878 4.40398 2.75212 4.60398 5.25212 4.30398C12.3521 3.60398 19.3521 2.70397 26.4521 2.00397C28.5521 1.80397 30.8521 1.50397 32.8521 2.00397C34.2521 2.40397 35.2521 4.20398 36.4521 5.40398C35.1521 6.50398 34.0521 8.10397 32.6521 8.50397C30.6521 9.00397 28.3521 8.60397 26.2521 8.60397C26.1521 8.60397 26.1521 8.50398 26.1521 8.40398Z" fill="black"/>
<path d="M132.852 29.804C134.552 26.904 135.852 24.604 137.352 22.504C138.352 21.204 139.652 19.504 141.052 19.304C142.052 19.104 144.052 20.704 144.652 22.004C146.652 26.304 142.352 32.904 136.152 35.404C131.052 37.504 126.152 35.704 124.552 30.504C123.952 28.604 124.252 25.004 125.552 24.104C128.352 22.104 129.852 24.804 130.752 27.304C131.052 27.704 131.452 28.004 132.852 29.804Z" fill="black"/>
<path d="M66.2521 51.804C67.6521 53.704 69.0521 54.804 69.3521 56.104C70.0521 59.304 70.1521 62.704 70.6521 66.004C71.0521 68.604 70.8521 71.604 72.2521 73.604C74.6521 77.104 72.2521 78.204 70.1521 79.304C67.5521 80.704 64.6521 79.904 64.3521 76.904C63.5521 70.004 63.2521 63.104 63.1521 56.104C63.0521 55.004 64.8521 53.704 66.2521 51.804Z" fill="black"/>
<path d="M30.6521 25.704C30.5521 31.504 25.0521 37.004 20.1521 37.504C15.5521 37.904 10.2521 33.704 9.6521 28.804C9.5521 27.504 10.7521 26.004 11.2521 24.604C12.5521 25.304 14.3521 25.604 15.2521 26.604C19.2521 31.604 20.2521 31.404 23.3521 25.804C24.1521 24.304 26.3521 23.004 28.0521 22.804C28.9521 22.704 30.1521 25.104 30.6521 25.704Z" fill="black"/>
</svg>
