<svg width="186" height="148" viewBox="0 0 186 148" fill="none" xmlns="http://www.w3.org/2000/svg">
<path d="M54.8032 21.1C50.2032 26.7 51.6032 32.5 52.3032 38.5C52.8032 42.3 51.0032 46.4 46.4032 47.1C41.4032 47.9 39.7031 43.9 38.8032 40.5C33.9032 43.8 29.1031 47.3 24.1031 50.3C22.7031 51.1 20.3032 50.3 18.4032 50.2C19.4032 48.4 20.0032 46.1 21.5032 44.9C29.1032 38.3 36.9032 32 44.8032 25.6C47.3032 23.6 50.0031 21.9 52.6031 20C53.3032 20.4 54.0032 20.8 54.8032 21.1Z" fill="black"/>
<path d="M141.503 43.1C138.203 49.7 134.803 52 131.103 50C127.403 48 128.003 42.2 131.403 34.9C131.203 32.1 129.903 27.8 131.203 26.9C134.703 24.4 136.103 29 138.603 30.6C143.903 34.1 149.603 37 155.003 40.4C156.903 41.6 158.403 43.3 160.103 44.7C158.103 45.7 155.903 47.8 154.103 47.4C149.903 46.6 146.003 44.7 141.503 43.1Z" fill="black"/>
<path d="M3.90315 35.5C2.20315 34 -0.0968473 32.7 0.00315267 31.8C0.203153 30.3 1.80315 28.7 3.10315 27.6C4.00315 26.8 5.80315 27 6.70315 26.2C16.0032 17.3 28.6032 12.4 36.4032 1.6C37.2032 0.500002 39.6032 0.5 41.3032 0C41.3032 1.8 42.1031 4.3 41.2031 5.4C36.9031 10.3 32.3032 15.1 27.3032 19.4C22.8032 23.4 17.7032 26.8 12.8032 30.3C10.2032 32.1 7.30315 33.5 3.90315 35.5Z" fill="black"/>
<path d="M154.403 2.2C155.103 2.9 156.603 3.9 157.103 5.2C161.803 16.9 170.503 24.7 181.403 30.5C182.003 30.8 182.703 31.1 183.103 31.6C184.003 33 184.803 34.5 185.603 36C183.803 36.1 181.703 37 180.303 36.3C168.903 31.4 159.303 24.4 153.803 12.8C153.003 11.2 151.903 9.7 151.003 8.1C149.403 5.3 150.903 2.1 154.403 2.2Z" fill="black"/>
<path d="M99.2032 94.4C96.5032 98.4 93.0032 99.3 89.3032 98.5C85.6032 97.6 84.8032 94.5 85.0032 91C85.4032 84.5 85.5032 78 86.2032 71.6C86.4032 69.8 88.5032 68.2 89.7032 66.5C90.6032 68.3 92.2032 70.1 92.2032 71.9C92.3032 77.2 92.0032 82.6 91.6032 87.9C91.3032 91.9 92.3032 94 96.7032 93.5C97.3032 93.4 97.9032 93.9 99.2032 94.4Z" fill="black"/>
<path d="M89.9032 136.8C93.9032 138.3 98.6032 139.8 102.803 142.1C104.003 142.8 103.903 146 104.303 148C102.403 147.8 100.503 147.7 98.7031 147.3C94.1031 146.4 89.7031 145.1 85.1031 144.6C83.1031 144.4 81.0032 145.8 78.8032 145.9C77.4032 146 75.8032 145.2 74.4032 144.9C75.4032 143.4 76.1032 141.1 77.4032 140.5C81.1032 139 85.0032 138.2 89.9032 136.8Z" fill="black"/>
</svg>
