<svg width="155" height="139" viewBox="0 0 155 139" fill="none" xmlns="http://www.w3.org/2000/svg">
<path d="M67.9366 138.925C57.1366 138.925 47.4366 127.025 50.1366 116.625C50.6366 114.825 53.1366 112.425 54.9366 112.225C65.8366 110.825 76.7366 110.025 87.6366 109.025C92.4366 108.625 92.5366 109.625 92.9366 115.125C93.3366 121.025 92.5366 126.225 88.0366 130.025C82.2366 134.825 75.8366 138.725 67.9366 138.925ZM76.0366 119.225C71.9366 119.625 71.3366 123.925 74.3366 130.625C79.3366 127.225 74.5366 122.825 76.0366 119.225ZM62.8366 119.225C64.0366 123.825 65.1366 127.925 66.1366 132.025C66.5366 131.925 67.0366 131.725 67.4366 131.625C68.0366 123.525 66.8366 119.525 62.8366 119.225ZM86.7366 117.125C79.1366 118.125 82.7366 122.325 82.1366 124.925C82.5366 125.125 83.0366 125.225 83.4366 125.425C84.4366 123.025 85.4366 120.525 86.7366 117.125Z" fill="black"/>
<path d="M15.0366 6.92541C13.3366 10.7254 12.4366 14.1254 10.4366 16.4254C9.23659 17.8254 5.63658 18.5254 4.03658 17.7254C0.236584 15.8254 -0.663419 11.8254 0.436581 7.82541C1.53658 4.02541 2.53658 -0.374595 7.93658 0.025405C19.1366 0.825405 30.4366 1.72541 41.6366 2.82541C42.6366 2.92541 43.5366 4.5254 44.5366 5.5254C43.3366 6.42541 42.1366 8.0254 40.8366 8.0254C35.0366 8.12541 29.2366 7.82541 23.3366 7.62541C20.4366 7.42541 17.5366 7.12541 15.0366 6.92541Z" fill="black"/>
<path d="M124.437 8.0254C123.937 10.9254 123.737 13.5254 122.937 16.0254C121.837 19.3254 118.837 21.0254 115.837 19.8254C113.737 18.9254 111.437 16.1254 111.137 13.9254C109.937 6.2254 113.037 2.72541 120.637 2.22541C130.237 1.52541 139.837 0.725405 149.437 0.325405C151.137 0.225405 154.437 2.02541 154.437 3.22541C154.737 6.52541 151.737 6.62541 149.137 6.72541C140.837 7.02541 132.637 7.6254 124.437 8.0254Z" fill="black"/>
<path d="M74.0366 64.9254C75.1366 66.4254 77.3366 69.1254 77.1366 69.2254C74.9366 71.3254 72.6366 73.5254 69.9366 74.4254C68.8366 74.8254 65.3366 72.0254 65.2366 70.5254C64.9366 62.1254 65.2366 53.6254 65.7366 45.2254C65.8366 44.1254 67.9366 43.2254 69.0366 42.2254C70.2366 43.8254 72.4366 45.2254 72.5366 46.9254C72.9366 53.0254 72.7366 59.1254 72.7366 65.3254C73.1366 65.3254 73.6366 65.1254 74.0366 64.9254Z" fill="black"/>
<path d="M76.0366 119.225C74.5366 122.825 79.3366 127.125 74.3366 130.625C71.4366 123.925 71.9366 119.625 76.0366 119.225Z" fill="white"/>
<path d="M62.8366 119.225C66.9366 119.525 68.1366 123.525 67.4366 131.625C67.0366 131.725 66.5366 131.925 66.1366 132.025C65.1366 127.925 64.0366 123.825 62.8366 119.225Z" fill="white"/>
<path d="M86.7366 117.125C85.4366 120.525 84.4366 123.025 83.4366 125.525C83.0366 125.325 82.5366 125.225 82.1366 125.025C82.7366 122.325 79.2366 118.125 86.7366 117.125Z" fill="white"/>
</svg>
